<svg xmlns="http://www.w3.org/2000/svg" width="177.152" height="142.778" viewBox="0 0 177.152 142.778">
  <g id="Original" transform="translate(16.651 -66)">
    <g id="SvgjsG1009" transform="translate(44.135 66)">
      <g id="Group_2444" data-name="Group 2444" transform="translate(0 0)">
        <g id="Group_2443" data-name="Group 2443">
          <g id="Group_2442" data-name="Group 2442">
            <g id="Group_2441" data-name="Group 2441">
              <path id="Path_10055" data-name="Path 10055" d="M87.054,38.6l-3.191,5.167c-.988,1.748-2.052,3.5-3.039,5.243-2.052,3.5-3.875,7.066-5.7,10.713-1.748,3.647-3.419,7.294-4.939,11.017a110.562,110.562,0,0,0-3.951,11.321l-1.368-1.52,12.081-1.9c4.027-.608,8.054-1.216,12.157-1.824l2.735-.38L90.55,78.871l-3.5,6.686c-1.14,2.2-2.355,4.407-3.5,6.686L76.8,105.768l-1.52-1.9,14.892-3.723,2.583-.608-1.216,2.355A109.808,109.808,0,0,0,86.9,112.531c-1.368,3.647-2.659,7.294-3.875,11.017-1.14,3.723-2.279,7.446-3.267,11.245-1.064,3.8-1.976,7.6-2.811,11.4.3-1.9.608-3.875.912-5.775.38-1.9.684-3.875,1.064-5.775s.836-3.875,1.292-5.775.912-3.8,1.444-5.7c1.064-3.8,2.128-7.6,3.419-11.321a114.781,114.781,0,0,1,4.407-11.017l1.368,1.748L76.037,106.6l-2.811.76,1.292-2.659,6.61-13.525c1.14-2.279,2.279-4.483,3.5-6.686l3.571-6.686,1.444,2.052c-4.027.532-8.054,1.14-12.157,1.748L65.324,83.277l-1.824.228.532-1.748c.608-2.052,1.292-3.951,2.052-5.851s1.52-3.8,2.355-5.623Q70.946,64.7,73.91,59.343c.988-1.748,1.976-3.571,3.039-5.243,1.064-1.748,2.128-3.419,3.191-5.167s2.279-3.343,3.419-5.015c1.14-2.052,2.355-3.647,3.5-5.319Z" transform="translate(-63.5 -24.467)" fill="#171717"/>
              <path id="Path_10056" data-name="Path 10056" d="M109.6,20c-1.444,1.824-2.963,3.647-4.407,5.547-1.368,1.9-2.887,3.723-4.179,5.7l-2.052,2.887L96.992,37.1,96,38.54l-.912,1.52-1.824,2.963c-2.431,4.027-4.635,8.13-6.686,12.309a111.859,111.859,0,0,0-5.395,12.841l-1.368-1.6,13.3-2.2,13.3-2.127,3.191-.532-1.824,2.659c-1.444,2.128-2.811,4.331-4.179,6.534s-2.735,4.483-4.027,6.686c-2.659,4.483-5.167,9.042-7.75,13.6l-1.52-1.9,14.817-3.875,2.659-.684-1.292,2.355c-1.976,3.571-3.8,7.218-5.547,10.865s-3.5,7.37-5.091,11.093c-1.672,3.723-3.191,7.522-4.635,11.321l-1.064,2.887-.988,2.887c-.684,1.9-1.292,3.875-1.976,5.775.988-3.951,2.052-7.978,3.267-11.853s2.583-7.826,4.027-11.625,3.039-7.6,4.711-11.4c1.672-3.723,3.419-7.446,5.319-11.169l1.368,1.672L90.989,91.955l-2.963.836,1.444-2.735c2.431-4.635,5.015-9.194,7.674-13.753,2.583-4.559,5.319-9.042,8.358-13.449l1.368,2.128-13.3,2.052-13.3,1.976-1.976.3.684-1.9c.836-2.355,1.748-4.483,2.735-6.686.532-1.064.988-2.128,1.52-3.191l1.6-3.191c2.2-4.179,4.635-8.282,7.218-12.233l1.976-2.963.988-1.444L96.08,36.26l2.127-2.887,2.2-2.811c1.444-1.9,3.039-3.647,4.559-5.471,1.368-1.672,3.039-3.343,4.635-5.091Z" transform="translate(-67.055 -20)" fill="#171717"/>
              <path id="Path_10057" data-name="Path 10057" d="M112.967,33.2c-1.824,2.355-3.5,4.787-5.167,7.294-1.6,2.507-3.191,5.015-4.635,7.6s-2.887,5.167-4.255,7.75-2.735,5.243-3.951,7.9L93.9,62.3c4.787-.76,9.65-1.52,14.437-2.279s9.65-1.52,14.513-2.2l2.963-.456-1.6,2.507-7.674,12.157-7.75,12.081-1.368-2.052c5.167-.76,10.258-1.52,15.424-2.2l3.039-.456-1.9,2.431c-1.216,1.6-2.431,3.343-3.647,5.091s-2.355,3.571-3.419,5.319c-2.2,3.571-4.331,7.294-6.458,10.941l-1.52,2.811-1.52,2.811c-1.064,1.9-1.976,3.723-2.963,5.623l-2.887,5.7-2.811,5.7,2.355-5.927c.836-1.976,1.672-3.951,2.507-5.851,1.748-3.875,3.5-7.75,5.395-11.625,1.9-3.8,3.875-7.6,6.079-11.321a109.9,109.9,0,0,1,6.99-10.865l1.14,1.976c-5.091.836-10.258,1.672-15.348,2.507l-2.963.456,1.6-2.507,7.674-12.157,7.75-12.081,1.368,2.052c-4.863.684-9.65,1.292-14.513,1.976s-9.726,1.216-14.513,1.824L92.3,64.5l.912-1.748c1.368-2.659,2.811-5.243,4.331-7.826s3.039-5.091,4.711-7.6,3.343-4.939,5.091-7.294a67.063,67.063,0,0,1,5.623-6.838Z" transform="translate(-70.417 -23.17)" fill="#171717"/>
            </g>
          </g>
        </g>
      </g>
    </g>
    <g id="SvgjsG1011" transform="translate(-16.651 166.798)">
      <g id="Group_2445" data-name="Group 2445" transform="translate(0 0)">
        <path id="Path_10058" data-name="Path 10058" d="M4.677,38.46h0a4.315,4.315,0,0,1,.737-2.393h0a11.773,11.773,0,0,1,1.953-2.241h0a32.326,32.326,0,0,1,2.8-2.257h0q1.573-1.147,3.26-2.477h0q1.679-1.33,3.351-2.887h0a23.1,23.1,0,0,0,3.054-3.5h0a20.37,20.37,0,0,0,3.761-9.65h0a68.519,68.519,0,0,0-9.68,1.314h0a11.561,11.561,0,0,0-3.655,1.558h0a2.488,2.488,0,0,0-1.231,1.991h0A7.491,7.491,0,0,0,9.2,19.707h0q.182.691.388,1.246h0q.213.562.388,1.011h0a2.175,2.175,0,0,1,.175.79h0q0,.631-1.588,1.383h0a5.872,5.872,0,0,1-2.112.676h0a2.035,2.035,0,0,1-1.276-.479h0a6.788,6.788,0,0,1-1.193-1.254h0a6.137,6.137,0,0,1-1.428-3.67h0A5.023,5.023,0,0,1,3.439,16.4h0a7.953,7.953,0,0,1,2.4-2.15h0a15.2,15.2,0,0,1,3.541-1.52h0A41.312,41.312,0,0,1,13.7,11.7h0q2.287-.418,4.711-.676h0q2.416-.258,4.726-.456h0q2.317-.2,4.384-.388h0q2.067-.182,3.662-.441h0q3.434-.562,3.617-1.5h0a9.828,9.828,0,0,1,.517-1.74h0A7.026,7.026,0,0,1,36.1,5.066h0A2.693,2.693,0,0,1,38.224,3.66h0a2.16,2.16,0,0,1,1.869,1.147h0a4.246,4.246,0,0,1,.7,2.325h0a3.117,3.117,0,0,1-.562,1.953h0a4.993,4.993,0,0,1-1.55,1.269h0a11.231,11.231,0,0,1-2.378.95h0a28.711,28.711,0,0,1-2.986.676h0q-2.553.448-7.112.843h0q.053,1.026.053,1.976h0q0,.942-.038,2.333h0q-.038,1.4-.213,3.472h0q-.175,2.082-.441,4.141h0q-.274,2.052-.6,3.852h0a28.1,28.1,0,0,1-1.292,5.288h0a22.032,22.032,0,0,1-1.512,2.963h0a24.981,24.981,0,0,1-1.9,2.713h0a24.9,24.9,0,0,1-2.211,2.393h0a18.621,18.621,0,0,1-2.386,1.93h0a8.49,8.49,0,0,1-4.65,1.755h0q-2.059,0-4.209-2.363h0A7.128,7.128,0,0,1,4.677,38.46ZM34.9,44.166h0q-5.1,0-5.1-5.82h0q0-4.931,5.448-12.621h0A57.216,57.216,0,0,1,45.632,14.411h0q3.526-2.872,5.212-2.872h0a2.817,2.817,0,0,1,2.2,1.14h0a3.8,3.8,0,0,1,1.049,2.492h0a4.77,4.77,0,0,1-.547,2.295h0a10.783,10.783,0,0,1-1.474,2.044h0a18.055,18.055,0,0,1-2.173,2.029h0a27.767,27.767,0,0,1-2.652,1.9h0a25.443,25.443,0,0,1-5.683,2.8h0q-1,2.219-1.983,4.931h0a26.4,26.4,0,0,1,11.01-5.942h0a13.632,13.632,0,0,1,3.389-.532h0q1.375,0,1.656.479h0a1.73,1.73,0,0,1,.106,1.269h0a8.079,8.079,0,0,1-.669,1.8h0q-.486,1-1,2.082h0A11.37,11.37,0,0,0,52.782,34.3h0q0,2.454,1.565,2.454h0a6.742,6.742,0,0,0,3.86-1.565h0a14.6,14.6,0,0,0,3.32-3.556h0q1.049-.068,1.049.866h0a5.841,5.841,0,0,1-.973,2.416h0a26.464,26.464,0,0,1-1.9,2.887h0a25.867,25.867,0,0,1-2.1,2.4h0a17.361,17.361,0,0,1-2.5,2.09h0a10.145,10.145,0,0,1-5.752,2.082h0a4.789,4.789,0,0,1-3.913-1.413h0a6.237,6.237,0,0,1-1.163-4.057h0q0-3.389,4.1-8.487h0q1.261-1.565,1.094-1.565h0q-1.869,0-5.676,2.34h0a18.971,18.971,0,0,0-5.706,4.863h0a37.6,37.6,0,0,0-1.147,7.173h0Q36.932,44.166,34.9,44.166Zm7.971-20.637h0a21.062,21.062,0,0,0,5.19-3.3h0q2.173-1.96,2.173-3.389h0a3.1,3.1,0,0,0-.274-1.3h0q-.266-.593-.7-.593h0a1.88,1.88,0,0,0-1.109.631h0a13.564,13.564,0,0,0-1.52,1.755h0A42.183,42.183,0,0,0,42.874,23.529Zm29.473,16.9h0a9.924,9.924,0,0,1-7.811,3.738h0a6.316,6.316,0,0,1-4.673-1.755h0a6.138,6.138,0,0,1-1.732-4.551h0a10.754,10.754,0,0,1,2.811-6.945h0a19.984,19.984,0,0,1,7.1-5.326h0a22.026,22.026,0,0,1,9.414-2.127h0a4.624,4.624,0,0,1,2.644.577h0a2.488,2.488,0,0,1,1.132-.874h0a3.37,3.37,0,0,1,.783-.129h0a7.6,7.6,0,0,1,1.892.258h0q-.091.3-.4,1.041h0q-.3.737-.676,1.74h0q-.372,1-.8,2.2h0a21.224,21.224,0,0,0-1.52,6.375h0q0,2.112,1.337,2.112h0a6.735,6.735,0,0,0,3.852-1.565h0a14.41,14.41,0,0,0,3.32-3.556h0q1.056-.068,1.056.866h0a5.6,5.6,0,0,1-.973,2.431h0a29.684,29.684,0,0,1-1.884,2.827h0A25.958,25.958,0,0,1,85.2,40.1h0a18.585,18.585,0,0,1-2.386,2.059h0A9.557,9.557,0,0,1,77.3,44.166h0q-3.412,0-4.582-2.059h0A2.258,2.258,0,0,1,72.347,41h0Zm-6.686-6.382h0q0,2.713,2.264,2.713h0q2.507,0,5.9-4.042h0q1.793-2.15,3.138-4.118h0Q78.3,26.637,79,25.611h0a17.141,17.141,0,0,0-9.7,2.659h0Q65.661,30.748,65.661,34.045Zm27.954,9.232h0q0,.935-1.565.935h0a5.738,5.738,0,0,1-5.516-3.085h0a5.3,5.3,0,0,1-.608-2.614h0a10.787,10.787,0,0,1,.441-3.032h0A18.006,18.006,0,0,1,87.559,32.5h0a22.623,22.623,0,0,1,1.732-2.849h0A23.754,23.754,0,0,1,91.373,27.1h0a15.468,15.468,0,0,1,4.392-3.48h0a2.473,2.473,0,0,1,1.018-.258h0q.456,0,.76.023h0a1.542,1.542,0,0,1,1.147.585h0q-1.428,3.016-2.34,5.516h0a21.749,21.749,0,0,1,9.68-5.585h0a12.038,12.038,0,0,1,3.138-.494h0q1.345,0,1.558.509h0a2.376,2.376,0,0,1,.213.919h0a7.143,7.143,0,0,1-.122,1.132h0a10.34,10.34,0,0,1-.608,1.976h0q-.486,1.261-1,2.553h0a15.158,15.158,0,0,0-1.307,4.46h0q0,2.059,1.466,2.059h0q2.53,0,5.569-3.32h0a16.4,16.4,0,0,0,1.611-2.059h0q1.049-.068,1.049.866h0a6.222,6.222,0,0,1-.957,2.469h0a34.247,34.247,0,0,1-1.831,2.963h0a24.291,24.291,0,0,1-1.976,2.447h0a16.728,16.728,0,0,1-2.409,2.15h0a9.464,9.464,0,0,1-5.562,2.082h0a5.528,5.528,0,0,1-4.118-1.428h0a5.715,5.715,0,0,1-1.4-4.164h0q0-4.042,4.2-9.673h0q1.292-1.71,1.125-1.71h0q-1.778,0-5,2.249h0a18.449,18.449,0,0,0-4.886,4.764h0A39.419,39.419,0,0,0,93.615,43.277Zm27.065-.046h0q0,.935-1.573.935h0a9.554,9.554,0,0,1-2.644-.312h0a3.622,3.622,0,0,1-1.694-1.018h0q-1.216-1.314-1.216-4.491h0q0-5.1,5.235-12.712h0a56.983,56.983,0,0,1,5.623-7.059h0q2.652-2.758,4.149-4.05h0q3.252-2.8,4.582-2.8h0a2.506,2.506,0,0,1,1.778.843h0A51.5,51.5,0,0,0,126.8,23.013h0a46.588,46.588,0,0,0-2.454,4.7h0a21.243,21.243,0,0,1,8.229-4.019h0a11.244,11.244,0,0,1,2.5-.3h0q2.249,0,2.249,2.059h0q0,1.938-2.409,4.559h0a18.514,18.514,0,0,1-4.627,3.647h0a7.19,7.19,0,0,0,1.185,2.3h0a2.214,2.214,0,0,0,1.77.805h0a5.164,5.164,0,0,0,2.082-.433h0a10.356,10.356,0,0,0,1.945-1.132h0a14.41,14.41,0,0,0,3.32-3.556h0q1.056-.068,1.056.866h0a5.841,5.841,0,0,1-.973,2.416h0a27.206,27.206,0,0,1-1.907,2.887h0a25.868,25.868,0,0,1-2.1,2.4h0a16.829,16.829,0,0,1-2.5,2.09h0a10.281,10.281,0,0,1-5.866,2.082h0q-4.627,0-4.886-8.3h0q-.023-1.147-.046-2.1h0a28.536,28.536,0,0,0,5.015-2.431h0q2.158-1.352,3.047-2.059h0q2.014-1.634,2.014-2.781h0q0-.517-.562-.517h0a4.175,4.175,0,0,0-1.307.251h0a15.172,15.172,0,0,0-1.687.676h0q-.935.433-1.976,1.041h0q-1.041.608-2.044,1.33h0a16.85,16.85,0,0,0-3.48,3.32h0A37.4,37.4,0,0,0,120.679,43.232ZM147.349,9.29h0q.122-1.915,1.428-1.915h0q5.326,0,9.087,5h0a27.138,27.138,0,0,1,3.4,5.835h0q1.239,2.978,1.96,4.893h0a37.828,37.828,0,0,0,7.522-11.937h0a11.737,11.737,0,0,0,.752-3.3h0a2.752,2.752,0,0,1,1.679-.023h0a1.9,1.9,0,0,1,.684,1.725h0a15.081,15.081,0,0,1-.319,2.9h0a21.843,21.843,0,0,1-1.459,4.255h0a54.333,54.333,0,0,1-7.036,11.4h0a36.44,36.44,0,0,0,2.431,5.737h0a8.959,8.959,0,0,0,1.755,2.264h0a2.606,2.606,0,0,0,1.717.669h0a5.283,5.283,0,0,0,1.983-.433h0a11.144,11.144,0,0,0,2.112-1.155h0a13.234,13.234,0,0,0,3.6-3.579h0q1.056-.068,1.056.866h0a6.672,6.672,0,0,1-.577,1.755h0A16.762,16.762,0,0,1,177,37.692h0a21.194,21.194,0,0,1-3.518,3.67h0a14.172,14.172,0,0,1-8.973,3.5h0q-4.513,0-6.588-4.908h0a21.974,21.974,0,0,1-1.1-3.29h0q-8.86,7.477-16.9,7.477h0q-3.039,0-3.039-3.951h0a18.4,18.4,0,0,1,1.147-5.775h0a12.177,12.177,0,0,0,4.415.935h0a15.95,15.95,0,0,0,3.624-.372h0a20.143,20.143,0,0,0,3.2-1.049h0a31.558,31.558,0,0,0,6.405-3.792h0q-.3-2.355-.562-4.764h0q-.251-2.409-.615-4.665h0q-.365-2.257-.889-4.24h0a16.4,16.4,0,0,0-1.345-3.533h0A6.3,6.3,0,0,0,147.349,9.29Z" transform="translate(-2.55 -3.66)" fill="#171717"/>
      </g>
    </g>
  </g>
</svg>
