<svg height="512" viewBox="0 0 60 39" width="512" xmlns="http://www.w3.org/2000/svg"><g id="Page-1" fill="none" fill-rule="evenodd"><g id="095---Money" fill="rgb(0,0,0)" fill-rule="nonzero"><path id="Shape" d="m48 9h-45c-1.65685425 0-3 1.3431458-3 3v24c0 1.6568542 1.34314575 3 3 3h45c1.6568542 0 3-1.3431458 3-3v-24c0-1.6568542-1.3431458-3-3-3zm1 27c0 .5522847-.4477153 1-1 1h-45c-.55228475 0-1-.4477153-1-1v-24c0-.5522847.44771525-1 1-1h45c.5522847 0 1 .4477153 1 1z"/><path id="Shape" d="m44 20.5c0 .5522847.4477153 1 1 1s1-.4477153 1-1c-.0965423-2.2415987-1.7783513-4.0953727-4-4.409v-.091c0-.5522847-.4477153-1-1-1s-1 .4477153-1 1v.091c-2.2216487.3136273-3.9034577 2.1674013-4 4.409.0965423 2.2415987 1.7783513 4.0953727 4 4.409v4.937c-1.1128409-.2524624-1.9267959-1.2072317-2-2.346 0-.5522847-.4477153-1-1-1s-1 .4477153-1 1c.0965423 2.2415987 1.7783513 4.0953727 4 4.409v.091c0 .5522847.4477153 1 1 1s1-.4477153 1-1v-.091c2.2216487-.3136273 3.9034577-2.1674013 4-4.409-.0965423-2.2415987-1.7783513-4.0953727-4-4.409v-4.937c1.1128409.2524624 1.9267959 1.2072317 2 2.346zm-6 0c.0732041-1.1387683.8871591-2.0935376 2-2.346v4.692c-1.1128409-.2524624-1.9267959-1.2072317-2-2.346zm6 7c-.0732041 1.1387683-.8871591 2.0935376-2 2.346v-4.692c1.1128409.2524624 1.9267959 1.2072317 2 2.346z"/><path id="Shape" d="m20 16c0-1.1045695-.8954305-2-2-2h-11c-1.1045695 0-2 .8954305-2 2v3c0 1.1045695.8954305 2 2 2h11c1.1045695 0 2-.8954305 2-2zm-13 3v-3h11v3z"/><path id="Shape" d="m32 24h-11c-.5522847 0-1 .4477153-1 1s.4477153 1 1 1h11c.5522847 0 1-.4477153 1-1s-.4477153-1-1-1z"/><path id="Shape" d="m17 24h-11c-.55228475 0-1 .4477153-1 1s.44771525 1 1 1h11c.5522847 0 1-.4477153 1-1s-.4477153-1-1-1z"/><path id="Shape" d="m17 28h-11c-.55228475 0-1 .4477153-1 1s.44771525 1 1 1h11c.5522847 0 1-.4477153 1-1s-.4477153-1-1-1z"/><path id="Shape" d="m32 28h-11c-.5522847 0-1 .4477153-1 1s.4477153 1 1 1h11c.5522847 0 1-.4477153 1-1s-.4477153-1-1-1z"/><path id="Shape" d="m17 32h-11c-.55228475 0-1 .4477153-1 1s.44771525 1 1 1h11c.5522847 0 1-.4477153 1-1s-.4477153-1-1-1z"/><path id="Shape" d="m32 32h-11c-.5522847 0-1 .4477153-1 1s.4477153 1 1 1h11c.5522847 0 1-.4477153 1-1s-.4477153-1-1-1z"/><path id="Shape" d="m57 0h-34c-.5522847 0-1 .44771525-1 1s.4477153 1 1 1h34c.5522847 0 1 .44771525 1 1v24c0 .5522847-.4477153 1-1 1h-3c-.5522847 0-1 .4477153-1 1s.4477153 1 1 1h3c1.6568542 0 3-1.3431458 3-3v-24c0-1.65685425-1.3431458-3-3-3z"/><path id="Shape" d="m12 0c-1.6568542 0-3 1.34314575-3 3v3c0 .55228475.44771525 1 1 1 .5522847 0 1-.44771525 1-1v-3c0-.55228475.4477153-1 1-1h6c.5522847 0 1-.44771525 1-1s-.4477153-1-1-1z"/></g></g></svg>